<svg viewBox="0 0 250 271" fill="none" xmlns="http://www.w3.org/2000/svg">
<g id="avatar">
<g id="avatar_2">
<g id="avatar-wrapper">
<path id="wrapper v" d="M245.874 147.759C245.871 171.612 238.795 194.928 225.541 214.759C212.286 234.59 193.449 250.045 171.411 259.169C149.372 268.294 125.123 270.678 101.73 266.02C78.3366 261.363 56.8499 249.872 39.9872 233.002C23.1245 216.133 11.6432 194.641 6.99529 171.246C2.34743 147.851 4.74177 123.602 13.8755 101.568C23.0092 79.5334 38.4721 60.7025 58.3086 47.4564C78.145 34.2104 101.464 27.1444 125.317 27.1519C141.175 27.073 156.891 30.1391 171.557 36.1729C186.222 42.2067 199.546 51.0884 210.757 62.3043C221.968 73.5201 230.844 86.8476 236.872 101.516C242.9 116.184 245.959 131.901 245.874 147.759Z" fill="#F1FFC4"/>
</g>
<g id="avatar-person">
<g id="hoodie jacket">
<path id="jacket base" d="M229.114 209.063C218.387 227.23 203.083 242.266 184.729 252.67C166.375 263.073 145.613 268.481 124.516 268.353C103.419 268.225 82.7244 262.565 64.4981 251.94C46.2718 241.314 31.1512 226.093 20.6458 207.798C27.8483 195.557 57.5065 153.747 124.519 158.658C194.114 153.557 223.431 198.81 229.114 209.063Z" fill="#C96659" stroke="#9B3535" stroke-width="0.93" stroke-miterlimit="10"/>
<g id="bottom neck">
<path id="b neck v" d="M99.5066 180.089L121.38 174.785L134.583 175.684L146.988 184.709L130.266 190.19L125 192.937L97.9243 182.785L99.5066 180.089Z" fill="#C1A58B"/>
</g>
<g id="hood tie">
<path id="l lace" d="M106.95 185.886C106.95 185.886 113.38 200.279 110.836 211.266C108.291 222.253 115.899 242.392 115.899 242.392L112.659 244.595C112.659 244.595 106.747 230.899 106.912 218.709C107.076 206.519 110.291 206.873 102.177 185.886L103.013 183.013L106.95 185.886Z" fill="#F4F4F4"/>
<path id="l tie" d="M113.722 240.532H113.709C111.843 240.532 110.329 242.045 110.329 243.911V249.671C110.329 251.538 111.843 253.051 113.709 253.051H113.722C115.588 253.051 117.101 251.538 117.101 249.671V243.911C117.101 242.045 115.588 240.532 113.722 240.532Z" fill="#262D38"/>
<path id="r lace" d="M146.988 183.013C146.988 183.013 138.304 196.329 138.304 204.671C138.304 213.013 140.393 211.785 141.342 228.127C141.861 236.81 139.886 240.532 139.886 240.532H143.684C143.684 240.532 147.064 222.152 143.114 211.772C138.811 200.456 152.924 183.013 152.924 183.013H146.988Z" fill="#F4F4F4"/>
<path id="r tie" d="M142.814 238.446L142.801 238.444C140.962 238.126 139.213 239.36 138.896 241.2L137.917 246.875C137.599 248.715 138.833 250.463 140.673 250.78L140.685 250.783C142.524 251.1 144.273 249.866 144.59 248.027L145.57 242.351C145.887 240.512 144.653 238.763 142.814 238.446Z" fill="#262D38"/>
</g>
<g id="jacket shade">
<path id="jl shade l" d="M108.127 187.342C108.127 187.342 75.6583 189.734 45.2786 181.101C45.2786 181.101 56.671 172.646 62.2786 170.051L108.127 187.342Z" fill="#AF564F"/>
<path id="jr shade v" d="M150.051 187.063C150.051 187.063 191.924 193.468 202.696 180.392C202.696 180.392 190.405 169.937 184.317 169.937L150.051 187.063Z" fill="#AF564F"/>
</g>
<path id="hood right" d="M127.696 191.81C127.696 191.81 230.557 174.557 189.962 148C149.367 121.443 139.886 153.911 139.886 153.911L150.317 159.114C150.317 159.114 156.355 174.215 127.696 191.81Z" fill="#C96659" stroke="#9B3535" stroke-width="1.07" stroke-miterlimit="10"/>
<path id="hood left" d="M120.253 191.532C120.253 191.532 17.4053 174.279 58.0129 147.722C98.6205 121.165 108.089 153.646 108.089 153.646L95.6205 159.089C95.6205 159.089 95.0256 180.646 120.253 191.532Z" fill="#C96659" stroke="#9B3535" stroke-width="1.07" stroke-miterlimit="10"/>
<g id="hood shade">
<path id="hs l" d="M60.3293 147.038C60.3293 147.038 86.9116 144.785 95.6205 159.519L97.1395 140.152C97.1395 140.152 83.3926 131.886 60.3293 147.038Z" fill="#AF564F"/>
<path id="hs r" d="M187.595 147.317C187.595 147.317 159.519 145.418 150.772 160.152L150.431 140.506C150.431 140.506 165.253 131.975 187.595 147.317Z" fill="#AF564F"/>
</g>
</g>
<g id="neck">
<path id="neck v" d="M150.43 140.506V156.304C150.466 162.194 148.98 167.993 146.114 173.139C141.304 181.734 132.911 187.43 123.329 187.43C113.747 187.43 105.38 181.734 100.544 173.139C97.6789 167.993 96.192 162.194 96.2279 156.304V140.506C96.2279 138.366 96.6497 136.246 97.4692 134.269C98.2887 132.292 99.4899 130.495 101.004 128.982C102.518 127.469 104.316 126.27 106.293 125.452C108.271 124.634 110.391 124.214 112.532 124.215H134.177C138.491 124.225 142.625 125.946 145.672 129C148.719 132.054 150.43 136.192 150.43 140.506Z" fill="#E5C4A3" stroke="#C1A58B" stroke-width="1.07" stroke-miterlimit="10"/>
<path id="neck shade" d="M151.519 135.544C142.848 151 123.367 158.228 123.367 158.228C123.367 158.228 103.874 150.975 95.2026 135.519L123.367 143.785L151.519 135.544Z" fill="#C1A58B"/>
</g>
<g id="ears">
<path id="ear left" d="M80.8989 109.253C87.2537 109.253 92.4052 100.996 92.4052 90.8101C92.4052 80.6243 87.2537 72.3671 80.8989 72.3671C74.5441 72.3671 69.3926 80.6243 69.3926 90.8101C69.3926 100.996 74.5441 109.253 80.8989 109.253Z" fill="#E5C4A3" stroke="#C1A58B" stroke-width="1.07" stroke-miterlimit="10"/>
<path id="ear right" d="M166.304 109.253C172.659 109.253 177.81 100.996 177.81 90.8101C177.81 80.6243 172.659 72.3671 166.304 72.3671C159.949 72.3671 154.798 80.6243 154.798 90.8101C154.798 100.996 159.949 109.253 166.304 109.253Z" fill="#E5C4A3" stroke="#C1A58B" stroke-width="1.07" stroke-miterlimit="10"/>
</g>
<g id="head">
<path id="head_2" d="M168.62 42.2026C168.62 42.2026 169.709 92.2786 169.544 94.3672C167.165 124.544 146.76 148 123.367 148C98.3672 148 76.5317 119.38 76.5317 86.2279C76.5317 81.1646 79.4938 42.2026 79.4938 42.2026C79.5104 37.5077 81.3829 33.0098 84.7027 29.69C88.0225 26.3702 92.5204 24.4978 97.2153 24.4811H150.886C155.583 24.4944 160.084 26.3654 163.407 29.6856C166.729 33.0058 168.604 37.5055 168.62 42.2026Z" fill="#E5C4A3" stroke="#C1A58B" stroke-width="1.07" stroke-miterlimit="10"/>
</g>
<g id="mouth">
<path id="inner" d="M145.481 111.29C145.45 114.16 144.785 116.987 143.534 119.569C142.282 122.152 140.474 124.425 138.241 126.227C134.029 129.61 128.811 131.492 123.409 131.577C118.008 131.662 112.733 129.944 108.418 126.695C106.02 124.899 104.067 122.576 102.71 119.904C101.354 117.233 100.63 114.286 100.595 111.29H145.481Z" fill="#4C4136"/>
<path id="teeth" d="M102.215 111.279H143.848V114C143.848 115.037 143.436 116.032 142.703 116.766C141.969 117.499 140.974 117.911 139.937 117.911H106.165C105.643 117.911 105.126 117.808 104.644 117.607C104.163 117.406 103.726 117.112 103.359 116.741C102.991 116.371 102.701 115.931 102.505 115.447C102.309 114.964 102.21 114.446 102.215 113.924V111.279Z" fill="white"/>
<path id="tongue" d="M137.975 126.228C133.763 129.611 128.545 131.493 123.144 131.578C117.743 131.663 112.467 129.945 108.152 126.696C112.768 123.974 118.061 122.617 123.418 122.785C128.487 122.642 133.506 123.829 137.975 126.228Z" fill="#FF4F6D"/>
</g>
<g id="nose">
<path id="nose v" d="M110.899 95.2659H135.823C135.823 95.2659 129.279 101.418 123.367 102.861C123.367 102.823 117.393 101.861 110.899 95.2659Z" fill="#B2987F"/>
</g>
<g id="eyes">
<path id="eye left" d="M110.899 77.924C110.898 78.4504 110.825 78.9741 110.684 79.481C109.696 75.8481 105.304 73.1519 100.013 73.1519C94.7216 73.1519 90.3419 75.8861 89.3419 79.481C89.2004 78.9741 89.1281 78.4504 89.1267 77.924C89.1267 73.5443 94.0001 70 100.013 70C106.025 70 110.899 73.5443 110.899 77.924Z" fill="#665848"/>
<path id="eye right" d="M154.81 77.924C154.809 78.4504 154.737 78.9741 154.595 79.481C153.595 75.8481 149.203 73.1519 143.924 73.1519C138.646 73.1519 134.241 75.8861 133.241 79.481C133.11 78.9723 133.041 78.4494 133.038 77.924C133.038 73.5443 137.912 70 143.924 70C149.937 70 154.81 73.5443 154.81 77.924Z" fill="#665848"/>
</g>
<g id="eyebrow">
<path id="brow left" opacity="0.72" d="M112.81 66.3924C108.458 64.3286 103.657 63.3919 98.8486 63.6683C94.04 63.9448 89.378 65.4257 85.2913 67.9747C85.2913 67.9747 88.671 60.076 96.1267 56.9241C96.1267 56.962 113.266 58.2279 112.81 66.3924Z" fill="#33211F"/>
<path id="brow right" opacity="0.72" d="M131.544 65.4937C135.897 63.4318 140.699 62.4972 145.508 62.7759C150.316 63.0546 154.978 64.5376 159.063 67.0886C159.063 67.0886 155.684 59.1899 148.241 56.0254C148.241 56.0127 131.089 57.3671 131.544 65.4937Z" fill="#33211F"/>
</g>
<g id="hair">
<path id="hair1" d="M91.3798 30.7595C91.3798 30.7595 76.4937 51.0507 76.4937 88.6076C76.4937 88.6076 57.0127 42.595 81.3039 27.038C81.3039 27.038 95.1013 -21.6962 165.152 21.2785L160.747 21.6203C160.747 21.6203 165.81 23.3038 175.937 34.481L173.228 35.8355C173.228 35.8355 184.734 43.2785 177.633 78.7975L169.506 94.3671C169.506 94.3671 170.317 60.5317 167.886 53.4304C167.886 53.4304 161.051 36.5063 155.228 30.076C155.329 30.076 132.329 18.5696 91.3798 30.7595Z" fill="#33211F"/>
<path id="hair2" d="M90.6962 31.7722C90.6962 31.7722 86.6455 16.3798 107.797 12.3165L105.595 15.8608C105.595 15.8608 110.658 12.1393 125.557 13.3292L123.367 15.0254C123.367 15.0254 146.57 25.8355 148.101 29.557C148.101 29.557 115.759 23.5824 90.6962 31.7722Z" fill="#3F2927"/>
<path id="hair3" d="M138.089 24.4304C138.089 24.4304 150.747 31.7722 159.063 48.9621C159.063 48.9621 158.924 40.5696 156.873 38.0253C154.823 35.481 166.114 51.481 166.114 61.7975L168.025 54.8228C168.025 54.8228 169.114 61.5443 170.051 68.7469C170.051 68.7469 170.835 32.2026 155.304 25.3165C155.304 25.3165 135.595 12.3291 120.987 14.5317L138.089 24.4304Z" fill="#3F2927"/>
</g>
</g>
</g>
</g>
</svg>
